<svg version="1.1" id="Layer_1" xmlns="http://www.w3.org/2000/svg" xmlns:xlink="http://www.w3.org/1999/xlink" x="0px" y="0px"
	 width="100%" viewBox="0 0 350 350" enable-background="new 0 0 350 350" xml:space="preserve">
<path fill="#000000" opacity="1.000000" stroke="none" 
	d="
M187.000000,351.000000 
	C124.666679,351.000000 62.833355,351.000000 1.000025,351.000000 
	C1.000017,234.333359 1.000017,117.666733 1.000008,1.000072 
	C117.666618,1.000048 234.333237,1.000048 350.999878,1.000024 
	C350.999939,117.666595 350.999939,234.333191 350.999969,350.999878 
	C296.500000,351.000000 242.000000,351.000000 187.000000,351.000000 
M277.009064,253.489578 
	C275.783783,255.047180 274.659302,256.698090 273.317444,258.147827 
	C261.052521,271.398865 247.354645,282.619568 230.705475,290.190308 
	C204.136673,302.271759 176.674149,305.378632 148.415543,298.557007 
	C118.553185,291.348236 94.114601,275.306519 75.994576,250.355606 
	C61.376087,230.226257 53.083710,207.645401 52.042095,182.644287 
	C51.751911,175.679062 51.988480,175.669205 44.872257,174.429169 
	C45.253017,165.864029 45.256023,157.239258 46.182983,148.714966 
	C46.617554,144.718643 45.314442,138.914383 52.192215,138.063980 
	C52.876690,137.979340 53.782688,136.284271 53.863716,135.278473 
	C54.355686,129.171585 55.270321,122.991348 54.730778,116.952927 
	C54.449970,113.810257 52.088230,110.160210 49.558071,108.101700 
	C46.886574,105.928200 42.896271,105.375679 39.728821,104.206139 
	C44.893780,100.644470 46.840504,96.514893 45.344131,91.738876 
	C43.860348,87.003052 39.174423,83.184212 34.915680,83.240105 
	C30.744894,83.294838 26.332466,86.878265 24.815567,91.442612 
	C23.123455,96.534180 24.876263,100.464600 31.002888,104.849953 
	C29.775106,104.922569 28.815161,104.902000 27.880770,105.046577 
	C18.664442,106.472679 14.895574,110.755020 15.047523,120.089272 
	C15.128206,125.045547 15.428616,130.034637 16.189154,134.921875 
	C16.425573,136.441101 18.471779,137.698853 19.736502,139.031677 
	C20.775400,140.126495 22.720974,141.074875 22.831444,142.225739 
	C23.867630,153.020676 24.595104,163.845230 25.412098,174.665009 
	C22.629370,174.960587 20.541033,175.182404 18.514450,175.397675 
	C16.291161,224.944595 45.405281,291.783783 114.038467,322.522797 
	C173.028992,348.943115 249.922501,337.688049 300.144775,278.289703 
	C341.331421,229.577866 351.689240,155.559845 313.978760,92.923592 
	C281.206329,38.489212 219.047791,14.193467 177.348145,16.744022 
	C177.348145,27.627995 177.348145,38.523502 177.348145,49.267895 
	C187.330933,50.652546 197.149780,51.175537 206.533722,53.474022 
	C234.207306,60.252335 257.342987,74.565636 275.416107,96.859276 
	C297.851624,124.534050 306.580322,156.295135 302.775055,191.333939 
	C300.302612,214.100189 291.523010,234.720932 277.009064,253.489578 
M70.099037,139.605591 
	C70.724045,140.239609 71.822998,140.822800 71.897316,141.515869 
	C72.387932,146.091171 72.678902,150.688705 72.995323,155.281693 
	C73.441574,161.759140 73.853523,168.238937 74.301254,175.038452 
	C72.067467,175.038452 69.787086,175.038452 67.534584,175.038452 
	C64.795731,213.970459 92.086876,264.752655 143.983719,281.575531 
	C193.081406,297.490997 249.109848,276.209869 275.256836,228.437836 
	C299.400787,184.325531 287.297516,129.462418 259.811981,102.901886 
	C251.505859,110.211395 243.184586,117.534233 234.854843,124.864517 
	C254.201736,145.418884 262.170532,179.660217 246.198196,211.251511 
	C233.202347,236.955643 203.573669,258.133453 164.145233,251.882126 
	C149.250229,249.520538 135.910339,242.753555 125.045410,232.345993 
	C108.915344,216.894958 100.518944,197.709961 100.812279,174.886673 
	C98.081818,174.886673 95.783722,174.886673 93.692032,174.886673 
	C94.136719,166.107086 94.223305,157.550064 95.154251,149.085907 
	C95.580002,145.215057 93.503288,139.382751 100.662445,138.499069 
	C101.586853,138.384979 102.742302,135.922165 102.887154,134.457947 
	C103.454559,128.722214 103.738266,122.953400 103.942497,117.190331 
	C103.991890,115.796379 103.520538,114.299393 102.970184,112.982925 
	C100.106766,106.133598 93.959106,105.287682 87.618233,104.802582 
	C93.222458,101.740646 95.976479,96.836243 94.686440,92.265045 
	C93.329842,87.458008 88.043785,82.972343 83.872612,83.088600 
	C79.573051,83.208435 73.891556,87.981781 73.032059,92.196335 
	C72.057045,96.977379 74.978279,101.985519 80.702087,104.863358 
	C79.561386,104.922302 78.804482,104.950005 78.049271,105.002182 
	C68.680077,105.649605 63.345570,110.536964 63.998203,120.024536 
	C64.348312,125.114128 64.371742,130.255814 65.203255,135.264297 
	C65.446869,136.731659 67.958473,137.822495 70.099037,139.605591 
M114.871574,110.677910 
	C114.247902,112.821060 113.095856,114.966270 113.104195,117.106956 
	C113.125343,122.533234 113.812973,127.954002 113.942757,133.383926 
	C114.014854,136.400284 114.703804,138.379547 118.004562,139.181122 
	C119.183922,139.467529 120.739822,141.135696 120.869751,142.311737 
	C121.484467,147.875702 121.592102,153.493225 122.021965,159.080765 
	C122.420975,164.267181 122.998856,169.439819 123.514664,174.791656 
	C121.080116,174.952209 118.669861,175.111160 115.610046,175.312943 
	C116.220985,180.422089 116.314934,185.229156 117.429253,189.786774 
	C121.046272,204.580643 128.847565,216.839523 141.309692,225.728149 
	C157.043655,236.950455 174.374069,240.843124 193.335175,235.861557 
	C205.417130,232.687317 215.344498,226.146042 223.694351,216.877930 
	C233.744965,205.722015 238.739365,192.621918 239.435547,177.800232 
	C239.477051,176.916977 237.519424,175.149765 236.464462,175.127930 
	C226.495529,174.921661 216.520599,175.005203 206.593414,175.005203 
	C206.009598,177.008163 205.221329,178.671478 205.071472,180.390442 
	C203.799927,194.974976 189.138382,205.217941 175.112213,203.997025 
	C162.907990,202.934708 151.115845,193.218430 149.849930,178.475037 
	C149.742752,177.226944 147.728836,175.867996 146.309128,175.098816 
	C145.276230,174.539200 143.762390,174.867325 142.704865,174.812241 
	C143.144958,165.871429 143.362244,157.166275 144.109848,148.506912 
	C144.385895,145.309631 145.432785,139.818069 146.952637,139.515549 
	C152.287811,138.453674 152.040512,135.242783 152.037781,131.469009 
	C152.036606,129.851654 152.617981,128.237152 152.648743,126.615921 
	C152.752563,121.142784 154.550339,115.555458 150.287354,110.520409 
	C146.631927,106.202942 141.888931,105.171219 136.398743,104.785927 
	C142.502838,100.784889 144.810394,96.400620 143.438873,91.905151 
	C142.008438,87.216576 136.819809,82.944016 132.755280,83.107773 
	C128.674103,83.272202 122.764992,87.794769 122.217102,91.896843 
	C121.887054,94.367821 122.254532,97.331047 123.404205,99.489487 
	C124.577950,101.693115 127.091949,103.182877 129.019196,104.985168 
	C128.854156,104.514442 128.689133,104.043724 128.524109,103.573006 
	C124.145195,105.744621 119.766273,107.916245 114.871574,110.677910 
z"/>
<path fill="#23487A" opacity="1.000000" stroke="none" 
	d="
M277.261536,253.235229 
	C291.523010,234.720932 300.302612,214.100189 302.775055,191.333939 
	C306.580322,156.295135 297.851624,124.534050 275.416107,96.859276 
	C257.342987,74.565636 234.207306,60.252335 206.533722,53.474022 
	C197.149780,51.175537 187.330933,50.652546 177.348145,49.267895 
	C177.348145,38.523502 177.348145,27.627995 177.348145,16.744022 
	C219.047791,14.193467 281.206329,38.489212 313.978760,92.923592 
	C351.689240,155.559845 341.331421,229.577866 300.144775,278.289703 
	C249.922501,337.688049 173.028992,348.943115 114.038467,322.522797 
	C45.405281,291.783783 16.291161,224.944595 18.514450,175.397675 
	C20.541033,175.182404 22.629370,174.960587 25.412098,174.665009 
	C24.595104,163.845230 23.867630,153.020676 22.831444,142.225739 
	C22.720974,141.074875 20.775400,140.126495 19.736502,139.031677 
	C18.471779,137.698853 16.425573,136.441101 16.189154,134.921875 
	C15.428616,130.034637 15.128206,125.045547 15.047523,120.089272 
	C14.895574,110.755020 18.664442,106.472679 27.880770,105.046577 
	C28.815161,104.902000 29.775106,104.922569 31.002888,104.849953 
	C24.876263,100.464600 23.123455,96.534180 24.815567,91.442612 
	C26.332466,86.878265 30.744894,83.294838 34.915680,83.240105 
	C39.174423,83.184212 43.860348,87.003052 45.344131,91.738876 
	C46.840504,96.514893 44.893780,100.644470 39.728821,104.206139 
	C42.896271,105.375679 46.886574,105.928200 49.558071,108.101700 
	C52.088230,110.160210 54.449970,113.810257 54.730778,116.952927 
	C55.270321,122.991348 54.355686,129.171585 53.863716,135.278473 
	C53.782688,136.284271 52.876690,137.979340 52.192215,138.063980 
	C45.314442,138.914383 46.617554,144.718643 46.182983,148.714966 
	C45.256023,157.239258 45.253017,165.864029 44.872257,174.429169 
	C51.988480,175.669205 51.751911,175.679062 52.042095,182.644287 
	C53.083710,207.645401 61.376087,230.226257 75.994576,250.355606 
	C94.114601,275.306519 118.553185,291.348236 148.415543,298.557007 
	C176.674149,305.378632 204.136673,302.271759 230.705475,290.190308 
	C247.354645,282.619568 261.052521,271.398865 273.317444,258.147827 
	C274.659302,256.698090 275.783783,255.047180 277.261536,253.235229 
z"/>
<path fill="#00B7EC" opacity="1.000000" stroke="none" 
	d="
M69.764816,139.345749 
	C67.958473,137.822495 65.446869,136.731659 65.203255,135.264297 
	C64.371742,130.255814 64.348312,125.114128 63.998203,120.024536 
	C63.345570,110.536964 68.680077,105.649605 78.049271,105.002182 
	C78.804482,104.950005 79.561386,104.922302 80.702087,104.863358 
	C74.978279,101.985519 72.057045,96.977379 73.032059,92.196335 
	C73.891556,87.981781 79.573051,83.208435 83.872612,83.088600 
	C88.043785,82.972343 93.329842,87.458008 94.686440,92.265045 
	C95.976479,96.836243 93.222458,101.740646 87.618233,104.802582 
	C93.959106,105.287682 100.106766,106.133598 102.970184,112.982925 
	C103.520538,114.299393 103.991890,115.796379 103.942497,117.190331 
	C103.738266,122.953400 103.454559,128.722214 102.887154,134.457947 
	C102.742302,135.922165 101.586853,138.384979 100.662445,138.499069 
	C93.503288,139.382751 95.580002,145.215057 95.154251,149.085907 
	C94.223305,157.550064 94.136719,166.107086 93.692032,174.886673 
	C95.783722,174.886673 98.081818,174.886673 100.812279,174.886673 
	C100.518944,197.709961 108.915344,216.894958 125.045410,232.345993 
	C135.910339,242.753555 149.250229,249.520538 164.145233,251.882126 
	C203.573669,258.133453 233.202347,236.955643 246.198196,211.251511 
	C262.170532,179.660217 254.201736,145.418884 234.854843,124.864517 
	C243.184586,117.534233 251.505859,110.211395 259.811981,102.901886 
	C287.297516,129.462418 299.400787,184.325531 275.256836,228.437836 
	C249.109848,276.209869 193.081406,297.490997 143.983719,281.575531 
	C92.086876,264.752655 64.795731,213.970459 67.534584,175.038452 
	C69.787086,175.038452 72.067467,175.038452 74.301254,175.038452 
	C73.853523,168.238937 73.441574,161.759140 72.995323,155.281693 
	C72.678902,150.688705 72.387932,146.091171 71.897316,141.515869 
	C71.822998,140.822800 70.724045,140.239609 69.764816,139.345749 
z"/>
<path fill="#B1C428" opacity="1.000000" stroke="none" 
	d="
M115.129471,110.382889 
	C119.766273,107.916245 124.145195,105.744621 128.524109,103.573006 
	C128.689133,104.043724 128.854156,104.514442 129.019196,104.985168 
	C127.091949,103.182877 124.577950,101.693115 123.404205,99.489487 
	C122.254532,97.331047 121.887054,94.367821 122.217102,91.896843 
	C122.764992,87.794769 128.674103,83.272202 132.755280,83.107773 
	C136.819809,82.944016 142.008438,87.216576 143.438873,91.905151 
	C144.810394,96.400620 142.502838,100.784889 136.398743,104.785927 
	C141.888931,105.171219 146.631927,106.202942 150.287354,110.520409 
	C154.550339,115.555458 152.752563,121.142784 152.648743,126.615921 
	C152.617981,128.237152 152.036606,129.851654 152.037781,131.469009 
	C152.040512,135.242783 152.287811,138.453674 146.952637,139.515549 
	C145.432785,139.818069 144.385895,145.309631 144.109848,148.506912 
	C143.362244,157.166275 143.144958,165.871429 142.704865,174.812241 
	C143.762390,174.867325 145.276230,174.539200 146.309128,175.098816 
	C147.728836,175.867996 149.742752,177.226944 149.849930,178.475037 
	C151.115845,193.218430 162.907990,202.934708 175.112213,203.997025 
	C189.138382,205.217941 203.799927,194.974976 205.071472,180.390442 
	C205.221329,178.671478 206.009598,177.008163 206.593414,175.005203 
	C216.520599,175.005203 226.495529,174.921661 236.464462,175.127930 
	C237.519424,175.149765 239.477051,176.916977 239.435547,177.800232 
	C238.739365,192.621918 233.744965,205.722015 223.694351,216.877930 
	C215.344498,226.146042 205.417130,232.687317 193.335175,235.861557 
	C174.374069,240.843124 157.043655,236.950455 141.309692,225.728149 
	C128.847565,216.839523 121.046272,204.580643 117.429253,189.786774 
	C116.314934,185.229156 116.220985,180.422089 115.610046,175.312943 
	C118.669861,175.111160 121.080116,174.952209 123.514664,174.791656 
	C122.998856,169.439819 122.420975,164.267181 122.021965,159.080765 
	C121.592102,153.493225 121.484467,147.875702 120.869751,142.311737 
	C120.739822,141.135696 119.183922,139.467529 118.004562,139.181122 
	C114.703804,138.379547 114.014854,136.400284 113.942757,133.383926 
	C113.812973,127.954002 113.125343,122.533234 113.104195,117.106956 
	C113.095856,114.966270 114.247902,112.821060 115.129471,110.382889 
z"/>
</svg>